<svg version="1.1" xmlns:xlink="http://www.w3.org/1999/xlink" xmlns="http://www.w3.org/2000/svg" height="512" width="512">
<line x1="239" y1="73" x2="255" y2="82" style="stroke:rgb(0,0,0);stroke-width:1" />
<line x1="255" y1="82" x2="257" y2="68" style="stroke:rgb(0,0,0);stroke-width:1" />
<line x1="257" y1="68" x2="239" y2="73" style="stroke:rgb(0,0,0);stroke-width:1" />
<line x1="247" y1="107" x2="264" y2="93" style="stroke:rgb(0,0,0);stroke-width:1" />
<line x1="264" y1="93" x2="255" y2="82" style="stroke:rgb(0,0,0);stroke-width:1" />
<line x1="255" y1="82" x2="247" y2="107" style="stroke:rgb(0,0,0);stroke-width:1" />
<line x1="281" y1="104" x2="272" y2="80" style="stroke:rgb(0,0,0);stroke-width:1" />
<line x1="272" y1="80" x2="264" y2="93" style="stroke:rgb(0,0,0);stroke-width:1" />
<line x1="264" y1="93" x2="281" y2="104" style="stroke:rgb(0,0,0);stroke-width:1" />
<line x1="291" y1="65" x2="271" y2="65" style="stroke:rgb(0,0,0);stroke-width:1" />
<line x1="271" y1="65" x2="272" y2="80" style="stroke:rgb(0,0,0);stroke-width:1" />
<line x1="272" y1="80" x2="291" y2="65" style="stroke:rgb(0,0,0);stroke-width:1" />
<line x1="264" y1="40" x2="257" y2="68" style="stroke:rgb(0,0,0);stroke-width:1" />
<line x1="257" y1="68" x2="271" y2="65" style="stroke:rgb(0,0,0);stroke-width:1" />
<line x1="271" y1="65" x2="264" y2="40" style="stroke:rgb(0,0,0);stroke-width:1" />
<line x1="264" y1="93" x2="272" y2="80" style="stroke:rgb(0,0,0);stroke-width:1" />
<line x1="272" y1="80" x2="255" y2="82" style="stroke:rgb(0,0,0);stroke-width:1" />
<line x1="255" y1="82" x2="264" y2="93" style="stroke:rgb(0,0,0);stroke-width:1" />
<line x1="255" y1="82" x2="272" y2="80" style="stroke:rgb(0,0,0);stroke-width:1" />
<line x1="272" y1="80" x2="257" y2="68" style="stroke:rgb(0,0,0);stroke-width:1" />
<line x1="257" y1="68" x2="255" y2="82" style="stroke:rgb(0,0,0);stroke-width:1" />
<line x1="257" y1="68" x2="272" y2="80" style="stroke:rgb(0,0,0);stroke-width:1" />
<line x1="272" y1="80" x2="271" y2="65" style="stroke:rgb(0,0,0);stroke-width:1" />
<line x1="271" y1="65" x2="257" y2="68" style="stroke:rgb(0,0,0);stroke-width:1" />
<line x1="263" y1="95" x2="263" y2="135" style="stroke:rgb(0,0,0);stroke-width:1" />
<line x1="263" y1="135" x2="291" y2="135" style="stroke:rgb(0,0,0);stroke-width:1" />
<line x1="291" y1="135" x2="263" y2="95" style="stroke:rgb(0,0,0);stroke-width:1" />
<line x1="263" y1="135" x2="273" y2="148" style="stroke:rgb(0,0,0);stroke-width:1" />
<line x1="273" y1="148" x2="291" y2="135" style="stroke:rgb(0,0,0);stroke-width:1" />
<line x1="291" y1="135" x2="263" y2="135" style="stroke:rgb(0,0,0);stroke-width:1" />
<line x1="273" y1="148" x2="263" y2="135" style="stroke:rgb(0,0,0);stroke-width:1" />
<line x1="263" y1="135" x2="273" y2="148" style="stroke:rgb(0,0,0);stroke-width:1" />
<line x1="273" y1="148" x2="273" y2="148" style="stroke:rgb(0,0,0);stroke-width:1" />
<line x1="263" y1="135" x2="263" y2="148" style="stroke:rgb(0,0,0);stroke-width:1" />
<line x1="263" y1="148" x2="273" y2="148" style="stroke:rgb(0,0,0);stroke-width:1" />
<line x1="273" y1="148" x2="263" y2="135" style="stroke:rgb(0,0,0);stroke-width:1" />
<line x1="273" y1="148" x2="263" y2="182" style="stroke:rgb(0,0,0);stroke-width:1" />
<line x1="263" y1="182" x2="305" y2="185" style="stroke:rgb(0,0,0);stroke-width:1" />
<line x1="305" y1="185" x2="273" y2="148" style="stroke:rgb(0,0,0);stroke-width:1" />
<line x1="263" y1="148" x2="263" y2="182" style="stroke:rgb(0,0,0);stroke-width:1" />
<line x1="263" y1="182" x2="273" y2="148" style="stroke:rgb(0,0,0);stroke-width:1" />
<line x1="273" y1="148" x2="263" y2="148" style="stroke:rgb(0,0,0);stroke-width:1" />
<line x1="263" y1="182" x2="288" y2="196" style="stroke:rgb(0,0,0);stroke-width:1" />
<line x1="288" y1="196" x2="305" y2="185" style="stroke:rgb(0,0,0);stroke-width:1" />
<line x1="305" y1="185" x2="263" y2="182" style="stroke:rgb(0,0,0);stroke-width:1" />
<line x1="263" y1="182" x2="262" y2="193" style="stroke:rgb(0,0,0);stroke-width:1" />
<line x1="262" y1="193" x2="288" y2="196" style="stroke:rgb(0,0,0);stroke-width:1" />
<line x1="288" y1="196" x2="263" y2="182" style="stroke:rgb(0,0,0);stroke-width:1" />
<line x1="288" y1="196" x2="262" y2="223" style="stroke:rgb(0,0,0);stroke-width:1" />
<line x1="262" y1="223" x2="318" y2="232" style="stroke:rgb(0,0,0);stroke-width:1" />
<line x1="318" y1="232" x2="288" y2="196" style="stroke:rgb(0,0,0);stroke-width:1" />
<line x1="262" y1="193" x2="262" y2="223" style="stroke:rgb(0,0,0);stroke-width:1" />
<line x1="262" y1="223" x2="288" y2="196" style="stroke:rgb(0,0,0);stroke-width:1" />
<line x1="288" y1="196" x2="262" y2="193" style="stroke:rgb(0,0,0);stroke-width:1" />
<line x1="262" y1="223" x2="301" y2="239" style="stroke:rgb(0,0,0);stroke-width:1" />
<line x1="301" y1="239" x2="318" y2="232" style="stroke:rgb(0,0,0);stroke-width:1" />
<line x1="318" y1="232" x2="262" y2="223" style="stroke:rgb(0,0,0);stroke-width:1" />
<line x1="262" y1="223" x2="262" y2="233" style="stroke:rgb(0,0,0);stroke-width:1" />
<line x1="262" y1="233" x2="301" y2="239" style="stroke:rgb(0,0,0);stroke-width:1" />
<line x1="301" y1="239" x2="262" y2="223" style="stroke:rgb(0,0,0);stroke-width:1" />
<line x1="301" y1="239" x2="262" y2="260" style="stroke:rgb(0,0,0);stroke-width:1" />
<line x1="262" y1="260" x2="331" y2="275" style="stroke:rgb(0,0,0);stroke-width:1" />
<line x1="331" y1="275" x2="301" y2="239" style="stroke:rgb(0,0,0);stroke-width:1" />
<line x1="262" y1="233" x2="262" y2="260" style="stroke:rgb(0,0,0);stroke-width:1" />
<line x1="262" y1="260" x2="301" y2="239" style="stroke:rgb(0,0,0);stroke-width:1" />
<line x1="301" y1="239" x2="262" y2="233" style="stroke:rgb(0,0,0);stroke-width:1" />
<line x1="262" y1="260" x2="314" y2="281" style="stroke:rgb(0,0,0);stroke-width:1" />
<line x1="314" y1="281" x2="331" y2="275" style="stroke:rgb(0,0,0);stroke-width:1" />
<line x1="331" y1="275" x2="262" y2="260" style="stroke:rgb(0,0,0);stroke-width:1" />
<line x1="262" y1="260" x2="262" y2="268" style="stroke:rgb(0,0,0);stroke-width:1" />
<line x1="262" y1="268" x2="314" y2="281" style="stroke:rgb(0,0,0);stroke-width:1" />
<line x1="314" y1="281" x2="262" y2="260" style="stroke:rgb(0,0,0);stroke-width:1" />
<line x1="301" y1="239" x2="262" y2="260" style="stroke:rgb(0,0,0);stroke-width:1" />
<line x1="262" y1="260" x2="331" y2="275" style="stroke:rgb(0,0,0);stroke-width:1" />
<line x1="331" y1="275" x2="301" y2="239" style="stroke:rgb(0,0,0);stroke-width:1" />
<line x1="314" y1="281" x2="261" y2="299" style="stroke:rgb(0,0,0);stroke-width:1" />
<line x1="261" y1="299" x2="349" y2="326" style="stroke:rgb(0,0,0);stroke-width:1" />
<line x1="349" y1="326" x2="314" y2="281" style="stroke:rgb(0,0,0);stroke-width:1" />
<line x1="262" y1="268" x2="261" y2="299" style="stroke:rgb(0,0,0);stroke-width:1" />
<line x1="261" y1="299" x2="314" y2="281" style="stroke:rgb(0,0,0);stroke-width:1" />
<line x1="314" y1="281" x2="262" y2="268" style="stroke:rgb(0,0,0);stroke-width:1" />
<line x1="261" y1="299" x2="332" y2="329" style="stroke:rgb(0,0,0);stroke-width:1" />
<line x1="332" y1="329" x2="349" y2="326" style="stroke:rgb(0,0,0);stroke-width:1" />
<line x1="349" y1="326" x2="261" y2="299" style="stroke:rgb(0,0,0);stroke-width:1" />
<line x1="261" y1="299" x2="261" y2="307" style="stroke:rgb(0,0,0);stroke-width:1" />
<line x1="261" y1="307" x2="332" y2="329" style="stroke:rgb(0,0,0);stroke-width:1" />
<line x1="332" y1="329" x2="261" y2="299" style="stroke:rgb(0,0,0);stroke-width:1" />
<line x1="332" y1="329" x2="261" y2="334" style="stroke:rgb(0,0,0);stroke-width:1" />
<line x1="261" y1="334" x2="366" y2="374" style="stroke:rgb(0,0,0);stroke-width:1" />
<line x1="366" y1="374" x2="332" y2="329" style="stroke:rgb(0,0,0);stroke-width:1" />
<line x1="261" y1="307" x2="261" y2="334" style="stroke:rgb(0,0,0);stroke-width:1" />
<line x1="261" y1="334" x2="332" y2="329" style="stroke:rgb(0,0,0);stroke-width:1" />
<line x1="332" y1="329" x2="261" y2="307" style="stroke:rgb(0,0,0);stroke-width:1" />
<line x1="261" y1="334" x2="349" y2="375" style="stroke:rgb(0,0,0);stroke-width:1" />
<line x1="349" y1="375" x2="366" y2="374" style="stroke:rgb(0,0,0);stroke-width:1" />
<line x1="366" y1="374" x2="261" y2="334" style="stroke:rgb(0,0,0);stroke-width:1" />
<line x1="261" y1="334" x2="261" y2="341" style="stroke:rgb(0,0,0);stroke-width:1" />
<line x1="261" y1="341" x2="349" y2="375" style="stroke:rgb(0,0,0);stroke-width:1" />
<line x1="349" y1="375" x2="261" y2="334" style="stroke:rgb(0,0,0);stroke-width:1" />
<line x1="261" y1="341" x2="382" y2="418" style="stroke:rgb(0,0,0);stroke-width:1" />
<line x1="382" y1="418" x2="349" y2="375" style="stroke:rgb(0,0,0);stroke-width:1" />
<line x1="349" y1="375" x2="261" y2="341" style="stroke:rgb(0,0,0);stroke-width:1" />
<line x1="261" y1="341" x2="274" y2="358" style="stroke:rgb(0,0,0);stroke-width:1" />
<line x1="274" y1="358" x2="382" y2="418" style="stroke:rgb(0,0,0);stroke-width:1" />
<line x1="382" y1="418" x2="261" y2="341" style="stroke:rgb(0,0,0);stroke-width:1" />
<line x1="261" y1="341" x2="261" y2="354" style="stroke:rgb(0,0,0);stroke-width:1" />
<line x1="261" y1="354" x2="274" y2="358" style="stroke:rgb(0,0,0);stroke-width:1" />
<line x1="274" y1="358" x2="261" y2="341" style="stroke:rgb(0,0,0);stroke-width:1" />
<line x1="261" y1="354" x2="284" y2="381" style="stroke:rgb(0,0,0);stroke-width:1" />
<line x1="284" y1="381" x2="274" y2="358" style="stroke:rgb(0,0,0);stroke-width:1" />
<line x1="274" y1="358" x2="261" y2="354" style="stroke:rgb(0,0,0);stroke-width:1" />
<line x1="261" y1="354" x2="261" y2="371" style="stroke:rgb(0,0,0);stroke-width:1" />
<line x1="261" y1="371" x2="284" y2="381" style="stroke:rgb(0,0,0);stroke-width:1" />
<line x1="284" y1="381" x2="261" y2="354" style="stroke:rgb(0,0,0);stroke-width:1" />
<line x1="263" y1="95" x2="238" y2="136" style="stroke:rgb(0,0,0);stroke-width:1" />
<line x1="238" y1="136" x2="263" y2="135" style="stroke:rgb(0,0,0);stroke-width:1" />
<line x1="263" y1="135" x2="263" y2="95" style="stroke:rgb(0,0,0);stroke-width:1" />
<line x1="263" y1="135" x2="238" y2="136" style="stroke:rgb(0,0,0);stroke-width:1" />
<line x1="238" y1="136" x2="253" y2="148" style="stroke:rgb(0,0,0);stroke-width:1" />
<line x1="253" y1="148" x2="263" y2="135" style="stroke:rgb(0,0,0);stroke-width:1" />
<line x1="253" y1="148" x2="263" y2="148" style="stroke:rgb(0,0,0);stroke-width:1" />
<line x1="263" y1="148" x2="253" y2="148" style="stroke:rgb(0,0,0);stroke-width:1" />
<line x1="253" y1="148" x2="253" y2="148" style="stroke:rgb(0,0,0);stroke-width:1" />
<line x1="263" y1="135" x2="253" y2="148" style="stroke:rgb(0,0,0);stroke-width:1" />
<line x1="253" y1="148" x2="263" y2="148" style="stroke:rgb(0,0,0);stroke-width:1" />
<line x1="263" y1="148" x2="263" y2="135" style="stroke:rgb(0,0,0);stroke-width:1" />
<line x1="253" y1="148" x2="226" y2="179" style="stroke:rgb(0,0,0);stroke-width:1" />
<line x1="226" y1="179" x2="263" y2="182" style="stroke:rgb(0,0,0);stroke-width:1" />
<line x1="263" y1="182" x2="253" y2="148" style="stroke:rgb(0,0,0);stroke-width:1" />
<line x1="263" y1="148" x2="253" y2="148" style="stroke:rgb(0,0,0);stroke-width:1" />
<line x1="253" y1="148" x2="263" y2="182" style="stroke:rgb(0,0,0);stroke-width:1" />
<line x1="263" y1="182" x2="263" y2="148" style="stroke:rgb(0,0,0);stroke-width:1" />
<line x1="263" y1="182" x2="226" y2="179" style="stroke:rgb(0,0,0);stroke-width:1" />
<line x1="226" y1="179" x2="239" y2="191" style="stroke:rgb(0,0,0);stroke-width:1" />
<line x1="239" y1="191" x2="263" y2="182" style="stroke:rgb(0,0,0);stroke-width:1" />
<line x1="263" y1="182" x2="239" y2="191" style="stroke:rgb(0,0,0);stroke-width:1" />
<line x1="239" y1="191" x2="262" y2="193" style="stroke:rgb(0,0,0);stroke-width:1" />
<line x1="262" y1="193" x2="263" y2="182" style="stroke:rgb(0,0,0);stroke-width:1" />
<line x1="239" y1="191" x2="217" y2="216" style="stroke:rgb(0,0,0);stroke-width:1" />
<line x1="217" y1="216" x2="262" y2="223" style="stroke:rgb(0,0,0);stroke-width:1" />
<line x1="262" y1="223" x2="239" y2="191" style="stroke:rgb(0,0,0);stroke-width:1" />
<line x1="262" y1="193" x2="239" y2="191" style="stroke:rgb(0,0,0);stroke-width:1" />
<line x1="239" y1="191" x2="262" y2="223" style="stroke:rgb(0,0,0);stroke-width:1" />
<line x1="262" y1="223" x2="262" y2="193" style="stroke:rgb(0,0,0);stroke-width:1" />
<line x1="262" y1="223" x2="217" y2="216" style="stroke:rgb(0,0,0);stroke-width:1" />
<line x1="217" y1="216" x2="228" y2="227" style="stroke:rgb(0,0,0);stroke-width:1" />
<line x1="228" y1="227" x2="262" y2="223" style="stroke:rgb(0,0,0);stroke-width:1" />
<line x1="262" y1="223" x2="228" y2="227" style="stroke:rgb(0,0,0);stroke-width:1" />
<line x1="228" y1="227" x2="262" y2="233" style="stroke:rgb(0,0,0);stroke-width:1" />
<line x1="262" y1="233" x2="262" y2="223" style="stroke:rgb(0,0,0);stroke-width:1" />
<line x1="228" y1="227" x2="208" y2="247" style="stroke:rgb(0,0,0);stroke-width:1" />
<line x1="208" y1="247" x2="262" y2="260" style="stroke:rgb(0,0,0);stroke-width:1" />
<line x1="262" y1="260" x2="228" y2="227" style="stroke:rgb(0,0,0);stroke-width:1" />
<line x1="262" y1="233" x2="228" y2="227" style="stroke:rgb(0,0,0);stroke-width:1" />
<line x1="228" y1="227" x2="262" y2="260" style="stroke:rgb(0,0,0);stroke-width:1" />
<line x1="262" y1="260" x2="262" y2="233" style="stroke:rgb(0,0,0);stroke-width:1" />
<line x1="262" y1="260" x2="208" y2="247" style="stroke:rgb(0,0,0);stroke-width:1" />
<line x1="208" y1="247" x2="218" y2="257" style="stroke:rgb(0,0,0);stroke-width:1" />
<line x1="218" y1="257" x2="262" y2="260" style="stroke:rgb(0,0,0);stroke-width:1" />
<line x1="262" y1="260" x2="218" y2="257" style="stroke:rgb(0,0,0);stroke-width:1" />
<line x1="218" y1="257" x2="262" y2="268" style="stroke:rgb(0,0,0);stroke-width:1" />
<line x1="262" y1="268" x2="262" y2="260" style="stroke:rgb(0,0,0);stroke-width:1" />
<line x1="228" y1="227" x2="208" y2="247" style="stroke:rgb(0,0,0);stroke-width:1" />
<line x1="208" y1="247" x2="262" y2="260" style="stroke:rgb(0,0,0);stroke-width:1" />
<line x1="262" y1="260" x2="228" y2="227" style="stroke:rgb(0,0,0);stroke-width:1" />
<line x1="218" y1="257" x2="196" y2="279" style="stroke:rgb(0,0,0);stroke-width:1" />
<line x1="196" y1="279" x2="261" y2="299" style="stroke:rgb(0,0,0);stroke-width:1" />
<line x1="261" y1="299" x2="218" y2="257" style="stroke:rgb(0,0,0);stroke-width:1" />
<line x1="262" y1="268" x2="218" y2="257" style="stroke:rgb(0,0,0);stroke-width:1" />
<line x1="218" y1="257" x2="261" y2="299" style="stroke:rgb(0,0,0);stroke-width:1" />
<line x1="261" y1="299" x2="262" y2="268" style="stroke:rgb(0,0,0);stroke-width:1" />
<line x1="261" y1="299" x2="196" y2="279" style="stroke:rgb(0,0,0);stroke-width:1" />
<line x1="196" y1="279" x2="206" y2="289" style="stroke:rgb(0,0,0);stroke-width:1" />
<line x1="206" y1="289" x2="261" y2="299" style="stroke:rgb(0,0,0);stroke-width:1" />
<line x1="261" y1="299" x2="206" y2="289" style="stroke:rgb(0,0,0);stroke-width:1" />
<line x1="206" y1="289" x2="261" y2="307" style="stroke:rgb(0,0,0);stroke-width:1" />
<line x1="261" y1="307" x2="261" y2="299" style="stroke:rgb(0,0,0);stroke-width:1" />
<line x1="206" y1="289" x2="187" y2="306" style="stroke:rgb(0,0,0);stroke-width:1" />
<line x1="187" y1="306" x2="261" y2="334" style="stroke:rgb(0,0,0);stroke-width:1" />
<line x1="261" y1="334" x2="206" y2="289" style="stroke:rgb(0,0,0);stroke-width:1" />
<line x1="261" y1="307" x2="206" y2="289" style="stroke:rgb(0,0,0);stroke-width:1" />
<line x1="206" y1="289" x2="261" y2="334" style="stroke:rgb(0,0,0);stroke-width:1" />
<line x1="261" y1="334" x2="261" y2="307" style="stroke:rgb(0,0,0);stroke-width:1" />
<line x1="261" y1="334" x2="187" y2="306" style="stroke:rgb(0,0,0);stroke-width:1" />
<line x1="187" y1="306" x2="196" y2="315" style="stroke:rgb(0,0,0);stroke-width:1" />
<line x1="196" y1="315" x2="261" y2="334" style="stroke:rgb(0,0,0);stroke-width:1" />
<line x1="261" y1="334" x2="196" y2="315" style="stroke:rgb(0,0,0);stroke-width:1" />
<line x1="196" y1="315" x2="261" y2="341" style="stroke:rgb(0,0,0);stroke-width:1" />
<line x1="261" y1="341" x2="261" y2="334" style="stroke:rgb(0,0,0);stroke-width:1" />
<line x1="261" y1="341" x2="196" y2="315" style="stroke:rgb(0,0,0);stroke-width:1" />
<line x1="196" y1="315" x2="179" y2="329" style="stroke:rgb(0,0,0);stroke-width:1" />
<line x1="179" y1="329" x2="261" y2="341" style="stroke:rgb(0,0,0);stroke-width:1" />
<line x1="261" y1="341" x2="179" y2="329" style="stroke:rgb(0,0,0);stroke-width:1" />
<line x1="179" y1="329" x2="248" y2="348" style="stroke:rgb(0,0,0);stroke-width:1" />
<line x1="248" y1="348" x2="261" y2="341" style="stroke:rgb(0,0,0);stroke-width:1" />
<line x1="261" y1="341" x2="248" y2="348" style="stroke:rgb(0,0,0);stroke-width:1" />
<line x1="248" y1="348" x2="261" y2="354" style="stroke:rgb(0,0,0);stroke-width:1" />
<line x1="261" y1="354" x2="261" y2="341" style="stroke:rgb(0,0,0);stroke-width:1" />
<line x1="261" y1="354" x2="248" y2="348" style="stroke:rgb(0,0,0);stroke-width:1" />
<line x1="248" y1="348" x2="239" y2="361" style="stroke:rgb(0,0,0);stroke-width:1" />
<line x1="239" y1="361" x2="261" y2="354" style="stroke:rgb(0,0,0);stroke-width:1" />
<line x1="261" y1="354" x2="239" y2="361" style="stroke:rgb(0,0,0);stroke-width:1" />
<line x1="239" y1="361" x2="261" y2="371" style="stroke:rgb(0,0,0);stroke-width:1" />
<line x1="261" y1="371" x2="261" y2="354" style="stroke:rgb(0,0,0);stroke-width:1" />
<line x1="264" y1="95" x2="263" y2="135" style="stroke:rgb(0,0,0);stroke-width:1" />
<line x1="263" y1="135" x2="276" y2="136" style="stroke:rgb(0,0,0);stroke-width:1" />
<line x1="276" y1="136" x2="264" y2="95" style="stroke:rgb(0,0,0);stroke-width:1" />
<line x1="263" y1="135" x2="268" y2="148" style="stroke:rgb(0,0,0);stroke-width:1" />
<line x1="268" y1="148" x2="276" y2="136" style="stroke:rgb(0,0,0);stroke-width:1" />
<line x1="276" y1="136" x2="263" y2="135" style="stroke:rgb(0,0,0);stroke-width:1" />
<line x1="268" y1="148" x2="263" y2="135" style="stroke:rgb(0,0,0);stroke-width:1" />
<line x1="263" y1="135" x2="268" y2="148" style="stroke:rgb(0,0,0);stroke-width:1" />
<line x1="268" y1="148" x2="268" y2="148" style="stroke:rgb(0,0,0);stroke-width:1" />
<line x1="263" y1="135" x2="263" y2="148" style="stroke:rgb(0,0,0);stroke-width:1" />
<line x1="263" y1="148" x2="268" y2="148" style="stroke:rgb(0,0,0);stroke-width:1" />
<line x1="268" y1="148" x2="263" y2="135" style="stroke:rgb(0,0,0);stroke-width:1" />
<line x1="268" y1="148" x2="263" y2="182" style="stroke:rgb(0,0,0);stroke-width:1" />
<line x1="263" y1="182" x2="281" y2="178" style="stroke:rgb(0,0,0);stroke-width:1" />
<line x1="281" y1="178" x2="268" y2="148" style="stroke:rgb(0,0,0);stroke-width:1" />
<line x1="263" y1="148" x2="263" y2="182" style="stroke:rgb(0,0,0);stroke-width:1" />
<line x1="263" y1="182" x2="268" y2="148" style="stroke:rgb(0,0,0);stroke-width:1" />
<line x1="268" y1="148" x2="263" y2="148" style="stroke:rgb(0,0,0);stroke-width:1" />
<line x1="263" y1="182" x2="274" y2="189" style="stroke:rgb(0,0,0);stroke-width:1" />
<line x1="274" y1="189" x2="281" y2="178" style="stroke:rgb(0,0,0);stroke-width:1" />
<line x1="281" y1="178" x2="263" y2="182" style="stroke:rgb(0,0,0);stroke-width:1" />
<line x1="263" y1="182" x2="263" y2="193" style="stroke:rgb(0,0,0);stroke-width:1" />
<line x1="263" y1="193" x2="274" y2="189" style="stroke:rgb(0,0,0);stroke-width:1" />
<line x1="274" y1="189" x2="263" y2="182" style="stroke:rgb(0,0,0);stroke-width:1" />
<line x1="274" y1="189" x2="262" y2="223" style="stroke:rgb(0,0,0);stroke-width:1" />
<line x1="262" y1="223" x2="285" y2="212" style="stroke:rgb(0,0,0);stroke-width:1" />
<line x1="285" y1="212" x2="274" y2="189" style="stroke:rgb(0,0,0);stroke-width:1" />
<line x1="263" y1="193" x2="262" y2="223" style="stroke:rgb(0,0,0);stroke-width:1" />
<line x1="262" y1="223" x2="274" y2="189" style="stroke:rgb(0,0,0);stroke-width:1" />
<line x1="274" y1="189" x2="263" y2="193" style="stroke:rgb(0,0,0);stroke-width:1" />
<line x1="262" y1="223" x2="279" y2="223" style="stroke:rgb(0,0,0);stroke-width:1" />
<line x1="279" y1="223" x2="285" y2="212" style="stroke:rgb(0,0,0);stroke-width:1" />
<line x1="285" y1="212" x2="262" y2="223" style="stroke:rgb(0,0,0);stroke-width:1" />
<line x1="262" y1="223" x2="262" y2="233" style="stroke:rgb(0,0,0);stroke-width:1" />
<line x1="262" y1="233" x2="279" y2="223" style="stroke:rgb(0,0,0);stroke-width:1" />
<line x1="279" y1="223" x2="262" y2="223" style="stroke:rgb(0,0,0);stroke-width:1" />
<line x1="279" y1="223" x2="262" y2="260" style="stroke:rgb(0,0,0);stroke-width:1" />
<line x1="262" y1="260" x2="288" y2="239" style="stroke:rgb(0,0,0);stroke-width:1" />
<line x1="288" y1="239" x2="279" y2="223" style="stroke:rgb(0,0,0);stroke-width:1" />
<line x1="262" y1="233" x2="262" y2="260" style="stroke:rgb(0,0,0);stroke-width:1" />
<line x1="262" y1="260" x2="279" y2="223" style="stroke:rgb(0,0,0);stroke-width:1" />
<line x1="279" y1="223" x2="262" y2="233" style="stroke:rgb(0,0,0);stroke-width:1" />
<line x1="262" y1="260" x2="284" y2="250" style="stroke:rgb(0,0,0);stroke-width:1" />
<line x1="284" y1="250" x2="288" y2="239" style="stroke:rgb(0,0,0);stroke-width:1" />
<line x1="288" y1="239" x2="262" y2="260" style="stroke:rgb(0,0,0);stroke-width:1" />
<line x1="262" y1="260" x2="262" y2="269" style="stroke:rgb(0,0,0);stroke-width:1" />
<line x1="262" y1="269" x2="284" y2="250" style="stroke:rgb(0,0,0);stroke-width:1" />
<line x1="284" y1="250" x2="262" y2="260" style="stroke:rgb(0,0,0);stroke-width:1" />
<line x1="279" y1="223" x2="262" y2="260" style="stroke:rgb(0,0,0);stroke-width:1" />
<line x1="262" y1="260" x2="288" y2="239" style="stroke:rgb(0,0,0);stroke-width:1" />
<line x1="288" y1="239" x2="279" y2="223" style="stroke:rgb(0,0,0);stroke-width:1" />
<line x1="284" y1="250" x2="261" y2="299" style="stroke:rgb(0,0,0);stroke-width:1" />
<line x1="261" y1="299" x2="293" y2="267" style="stroke:rgb(0,0,0);stroke-width:1" />
<line x1="293" y1="267" x2="284" y2="250" style="stroke:rgb(0,0,0);stroke-width:1" />
<line x1="262" y1="269" x2="261" y2="299" style="stroke:rgb(0,0,0);stroke-width:1" />
<line x1="261" y1="299" x2="284" y2="250" style="stroke:rgb(0,0,0);stroke-width:1" />
<line x1="284" y1="250" x2="262" y2="269" style="stroke:rgb(0,0,0);stroke-width:1" />
<line x1="261" y1="299" x2="289" y2="278" style="stroke:rgb(0,0,0);stroke-width:1" />
<line x1="289" y1="278" x2="293" y2="267" style="stroke:rgb(0,0,0);stroke-width:1" />
<line x1="293" y1="267" x2="261" y2="299" style="stroke:rgb(0,0,0);stroke-width:1" />
<line x1="261" y1="299" x2="261" y2="307" style="stroke:rgb(0,0,0);stroke-width:1" />
<line x1="261" y1="307" x2="289" y2="278" style="stroke:rgb(0,0,0);stroke-width:1" />
<line x1="289" y1="278" x2="261" y2="299" style="stroke:rgb(0,0,0);stroke-width:1" />
<line x1="289" y1="278" x2="261" y2="334" style="stroke:rgb(0,0,0);stroke-width:1" />
<line x1="261" y1="334" x2="297" y2="290" style="stroke:rgb(0,0,0);stroke-width:1" />
<line x1="297" y1="290" x2="289" y2="278" style="stroke:rgb(0,0,0);stroke-width:1" />
<line x1="261" y1="307" x2="261" y2="334" style="stroke:rgb(0,0,0);stroke-width:1" />
<line x1="261" y1="334" x2="289" y2="278" style="stroke:rgb(0,0,0);stroke-width:1" />
<line x1="289" y1="278" x2="261" y2="307" style="stroke:rgb(0,0,0);stroke-width:1" />
<line x1="261" y1="334" x2="293" y2="300" style="stroke:rgb(0,0,0);stroke-width:1" />
<line x1="293" y1="300" x2="297" y2="290" style="stroke:rgb(0,0,0);stroke-width:1" />
<line x1="297" y1="290" x2="261" y2="334" style="stroke:rgb(0,0,0);stroke-width:1" />
<line x1="261" y1="334" x2="261" y2="341" style="stroke:rgb(0,0,0);stroke-width:1" />
<line x1="261" y1="341" x2="293" y2="300" style="stroke:rgb(0,0,0);stroke-width:1" />
<line x1="293" y1="300" x2="261" y2="334" style="stroke:rgb(0,0,0);stroke-width:1" />
<line x1="261" y1="341" x2="300" y2="308" style="stroke:rgb(0,0,0);stroke-width:1" />
<line x1="300" y1="308" x2="293" y2="300" style="stroke:rgb(0,0,0);stroke-width:1" />
<line x1="293" y1="300" x2="261" y2="341" style="stroke:rgb(0,0,0);stroke-width:1" />
<line x1="261" y1="341" x2="267" y2="344" style="stroke:rgb(0,0,0);stroke-width:1" />
<line x1="267" y1="344" x2="300" y2="308" style="stroke:rgb(0,0,0);stroke-width:1" />
<line x1="300" y1="308" x2="261" y2="341" style="stroke:rgb(0,0,0);stroke-width:1" />
<line x1="261" y1="341" x2="261" y2="354" style="stroke:rgb(0,0,0);stroke-width:1" />
<line x1="261" y1="354" x2="267" y2="344" style="stroke:rgb(0,0,0);stroke-width:1" />
<line x1="267" y1="344" x2="261" y2="341" style="stroke:rgb(0,0,0);stroke-width:1" />
<line x1="261" y1="354" x2="272" y2="354" style="stroke:rgb(0,0,0);stroke-width:1" />
<line x1="272" y1="354" x2="267" y2="344" style="stroke:rgb(0,0,0);stroke-width:1" />
<line x1="267" y1="344" x2="261" y2="354" style="stroke:rgb(0,0,0);stroke-width:1" />
<line x1="261" y1="354" x2="261" y2="371" style="stroke:rgb(0,0,0);stroke-width:1" />
<line x1="261" y1="371" x2="272" y2="354" style="stroke:rgb(0,0,0);stroke-width:1" />
<line x1="272" y1="354" x2="261" y2="354" style="stroke:rgb(0,0,0);stroke-width:1" />
<line x1="264" y1="95" x2="248" y2="134" style="stroke:rgb(0,0,0);stroke-width:1" />
<line x1="248" y1="134" x2="263" y2="135" style="stroke:rgb(0,0,0);stroke-width:1" />
<line x1="263" y1="135" x2="264" y2="95" style="stroke:rgb(0,0,0);stroke-width:1" />
<line x1="263" y1="135" x2="248" y2="134" style="stroke:rgb(0,0,0);stroke-width:1" />
<line x1="248" y1="134" x2="257" y2="148" style="stroke:rgb(0,0,0);stroke-width:1" />
<line x1="257" y1="148" x2="263" y2="135" style="stroke:rgb(0,0,0);stroke-width:1" />
<line x1="257" y1="148" x2="263" y2="148" style="stroke:rgb(0,0,0);stroke-width:1" />
<line x1="263" y1="148" x2="257" y2="148" style="stroke:rgb(0,0,0);stroke-width:1" />
<line x1="257" y1="148" x2="257" y2="148" style="stroke:rgb(0,0,0);stroke-width:1" />
<line x1="263" y1="135" x2="257" y2="148" style="stroke:rgb(0,0,0);stroke-width:1" />
<line x1="257" y1="148" x2="263" y2="148" style="stroke:rgb(0,0,0);stroke-width:1" />
<line x1="263" y1="148" x2="263" y2="135" style="stroke:rgb(0,0,0);stroke-width:1" />
<line x1="257" y1="148" x2="238" y2="188" style="stroke:rgb(0,0,0);stroke-width:1" />
<line x1="238" y1="188" x2="263" y2="182" style="stroke:rgb(0,0,0);stroke-width:1" />
<line x1="263" y1="182" x2="257" y2="148" style="stroke:rgb(0,0,0);stroke-width:1" />
<line x1="263" y1="148" x2="257" y2="148" style="stroke:rgb(0,0,0);stroke-width:1" />
<line x1="257" y1="148" x2="263" y2="182" style="stroke:rgb(0,0,0);stroke-width:1" />
<line x1="263" y1="182" x2="263" y2="148" style="stroke:rgb(0,0,0);stroke-width:1" />
<line x1="263" y1="182" x2="238" y2="188" style="stroke:rgb(0,0,0);stroke-width:1" />
<line x1="238" y1="188" x2="248" y2="198" style="stroke:rgb(0,0,0);stroke-width:1" />
<line x1="248" y1="198" x2="263" y2="182" style="stroke:rgb(0,0,0);stroke-width:1" />
<line x1="263" y1="182" x2="248" y2="198" style="stroke:rgb(0,0,0);stroke-width:1" />
<line x1="248" y1="198" x2="263" y2="193" style="stroke:rgb(0,0,0);stroke-width:1" />
<line x1="263" y1="193" x2="263" y2="182" style="stroke:rgb(0,0,0);stroke-width:1" />
<line x1="248" y1="198" x2="230" y2="240" style="stroke:rgb(0,0,0);stroke-width:1" />
<line x1="230" y1="240" x2="262" y2="223" style="stroke:rgb(0,0,0);stroke-width:1" />
<line x1="262" y1="223" x2="248" y2="198" style="stroke:rgb(0,0,0);stroke-width:1" />
<line x1="263" y1="193" x2="248" y2="198" style="stroke:rgb(0,0,0);stroke-width:1" />
<line x1="248" y1="198" x2="262" y2="223" style="stroke:rgb(0,0,0);stroke-width:1" />
<line x1="262" y1="223" x2="263" y2="193" style="stroke:rgb(0,0,0);stroke-width:1" />
<line x1="262" y1="223" x2="230" y2="240" style="stroke:rgb(0,0,0);stroke-width:1" />
<line x1="230" y1="240" x2="240" y2="245" style="stroke:rgb(0,0,0);stroke-width:1" />
<line x1="240" y1="245" x2="262" y2="223" style="stroke:rgb(0,0,0);stroke-width:1" />
<line x1="262" y1="223" x2="240" y2="245" style="stroke:rgb(0,0,0);stroke-width:1" />
<line x1="240" y1="245" x2="262" y2="233" style="stroke:rgb(0,0,0);stroke-width:1" />
<line x1="262" y1="233" x2="262" y2="223" style="stroke:rgb(0,0,0);stroke-width:1" />
<line x1="240" y1="245" x2="220" y2="291" style="stroke:rgb(0,0,0);stroke-width:1" />
<line x1="220" y1="291" x2="262" y2="260" style="stroke:rgb(0,0,0);stroke-width:1" />
<line x1="262" y1="260" x2="240" y2="245" style="stroke:rgb(0,0,0);stroke-width:1" />
<line x1="262" y1="233" x2="240" y2="245" style="stroke:rgb(0,0,0);stroke-width:1" />
<line x1="240" y1="245" x2="262" y2="260" style="stroke:rgb(0,0,0);stroke-width:1" />
<line x1="262" y1="260" x2="262" y2="233" style="stroke:rgb(0,0,0);stroke-width:1" />
<line x1="262" y1="260" x2="220" y2="291" style="stroke:rgb(0,0,0);stroke-width:1" />
<line x1="220" y1="291" x2="231" y2="293" style="stroke:rgb(0,0,0);stroke-width:1" />
<line x1="231" y1="293" x2="262" y2="260" style="stroke:rgb(0,0,0);stroke-width:1" />
<line x1="262" y1="260" x2="231" y2="293" style="stroke:rgb(0,0,0);stroke-width:1" />
<line x1="231" y1="293" x2="262" y2="269" style="stroke:rgb(0,0,0);stroke-width:1" />
<line x1="262" y1="269" x2="262" y2="260" style="stroke:rgb(0,0,0);stroke-width:1" />
<line x1="240" y1="245" x2="220" y2="291" style="stroke:rgb(0,0,0);stroke-width:1" />
<line x1="220" y1="291" x2="262" y2="260" style="stroke:rgb(0,0,0);stroke-width:1" />
<line x1="262" y1="260" x2="240" y2="245" style="stroke:rgb(0,0,0);stroke-width:1" />
<line x1="231" y1="293" x2="207" y2="355" style="stroke:rgb(0,0,0);stroke-width:1" />
<line x1="207" y1="355" x2="261" y2="299" style="stroke:rgb(0,0,0);stroke-width:1" />
<line x1="261" y1="299" x2="231" y2="293" style="stroke:rgb(0,0,0);stroke-width:1" />
<line x1="262" y1="269" x2="231" y2="293" style="stroke:rgb(0,0,0);stroke-width:1" />
<line x1="231" y1="293" x2="261" y2="299" style="stroke:rgb(0,0,0);stroke-width:1" />
<line x1="261" y1="299" x2="262" y2="269" style="stroke:rgb(0,0,0);stroke-width:1" />
<line x1="261" y1="299" x2="207" y2="355" style="stroke:rgb(0,0,0);stroke-width:1" />
<line x1="207" y1="355" x2="219" y2="352" style="stroke:rgb(0,0,0);stroke-width:1" />
<line x1="219" y1="352" x2="261" y2="299" style="stroke:rgb(0,0,0);stroke-width:1" />
<line x1="261" y1="299" x2="219" y2="352" style="stroke:rgb(0,0,0);stroke-width:1" />
<line x1="219" y1="352" x2="261" y2="307" style="stroke:rgb(0,0,0);stroke-width:1" />
<line x1="261" y1="307" x2="261" y2="299" style="stroke:rgb(0,0,0);stroke-width:1" />
<line x1="219" y1="352" x2="193" y2="419" style="stroke:rgb(0,0,0);stroke-width:1" />
<line x1="193" y1="419" x2="261" y2="334" style="stroke:rgb(0,0,0);stroke-width:1" />
<line x1="261" y1="334" x2="219" y2="352" style="stroke:rgb(0,0,0);stroke-width:1" />
<line x1="261" y1="307" x2="219" y2="352" style="stroke:rgb(0,0,0);stroke-width:1" />
<line x1="219" y1="352" x2="261" y2="334" style="stroke:rgb(0,0,0);stroke-width:1" />
<line x1="261" y1="334" x2="261" y2="307" style="stroke:rgb(0,0,0);stroke-width:1" />
<line x1="261" y1="334" x2="193" y2="419" style="stroke:rgb(0,0,0);stroke-width:1" />
<line x1="193" y1="419" x2="206" y2="411" style="stroke:rgb(0,0,0);stroke-width:1" />
<line x1="206" y1="411" x2="261" y2="334" style="stroke:rgb(0,0,0);stroke-width:1" />
<line x1="261" y1="334" x2="206" y2="411" style="stroke:rgb(0,0,0);stroke-width:1" />
<line x1="206" y1="411" x2="261" y2="341" style="stroke:rgb(0,0,0);stroke-width:1" />
<line x1="261" y1="341" x2="261" y2="334" style="stroke:rgb(0,0,0);stroke-width:1" />
<line x1="261" y1="341" x2="206" y2="411" style="stroke:rgb(0,0,0);stroke-width:1" />
<line x1="206" y1="411" x2="179" y2="482" style="stroke:rgb(0,0,0);stroke-width:1" />
<line x1="179" y1="482" x2="261" y2="341" style="stroke:rgb(0,0,0);stroke-width:1" />
<line x1="261" y1="341" x2="179" y2="482" style="stroke:rgb(0,0,0);stroke-width:1" />
<line x1="179" y1="482" x2="254" y2="363" style="stroke:rgb(0,0,0);stroke-width:1" />
<line x1="254" y1="363" x2="261" y2="341" style="stroke:rgb(0,0,0);stroke-width:1" />
<line x1="261" y1="341" x2="254" y2="363" style="stroke:rgb(0,0,0);stroke-width:1" />
<line x1="254" y1="363" x2="261" y2="354" style="stroke:rgb(0,0,0);stroke-width:1" />
<line x1="261" y1="354" x2="261" y2="341" style="stroke:rgb(0,0,0);stroke-width:1" />
<line x1="261" y1="354" x2="254" y2="363" style="stroke:rgb(0,0,0);stroke-width:1" />
<line x1="254" y1="363" x2="247" y2="391" style="stroke:rgb(0,0,0);stroke-width:1" />
<line x1="247" y1="391" x2="261" y2="354" style="stroke:rgb(0,0,0);stroke-width:1" />
<line x1="261" y1="354" x2="247" y2="391" style="stroke:rgb(0,0,0);stroke-width:1" />
<line x1="247" y1="391" x2="261" y2="371" style="stroke:rgb(0,0,0);stroke-width:1" />
<line x1="261" y1="371" x2="261" y2="354" style="stroke:rgb(0,0,0);stroke-width:1" />
</svg>
